<?xml version="1.0" encoding="UTF-8" standalone="no"?>
<!DOCTYPE svg PUBLIC "-//W3C//DTD SVG 1.1//EN" "http://www.w3.org/Graphics/SVG/1.1/DTD/svg11.dtd">
<!-- Created with Vectornator (http://vectornator.io/) -->
<svg height="100%" stroke-miterlimit="10" style="fill-rule:nonzero;clip-rule:evenodd;stroke-linecap:round;stroke-linejoin:round;" version="1.1" viewBox="0 0 992.25 268.062" width="100%" xml:space="preserve" xmlns="http://www.w3.org/2000/svg" xmlns:xlink="http://www.w3.org/1999/xlink">
<defs>
<linearGradient gradientTransform="matrix(1284.29 -450.033 450.033 1284.29 -12.506 324.092)" gradientUnits="userSpaceOnUse" id="LinearGradient" x1="0" x2="1" y1="0" y2="0">
<stop offset="0" stop-color="#01303f"/>
<stop offset="0.540723" stop-color="#02577a"/>
<stop offset="1" stop-color="#89d6fb"/>
</linearGradient>
</defs>
<clipPath id="ArtboardFrame">
<rect height="268.062" width="992.25" x="0" y="0"/>
</clipPath>
<g clip-path="url(#ArtboardFrame)" id="Layer-1">
<path d="M69.2813 0C49.0144-1.85113e-05 32.4009 7.06846 19.4375 21.2187C6.47402 35.369-5.08626e-06 52.9716-1.95399e-14 73.9687C-1.85113e-05 95.6963 6.47411 113.532 19.4375 127.5C32.401 141.468 50.2345 148.438 72.875 148.438C90.2205 148.438 104.456 144.077 115.594 135.312C126.731 126.548 133.667 115.584 136.406 102.438L99.7187 102.438C95.3367 113.94 86.2876 119.687 72.5938 119.687C62.1865 119.688 53.9627 116.617 47.9375 110.5C41.9122 104.383 38.1797 95.7627 36.7188 84.625L138.594 84.625C138.594 58.8807 132.582 38.337 120.531 23C108.481 7.6629 91.374-1.01725e-05 69.2813 0ZM346.188 0C325.921-1.85113e-05 309.307 7.06846 296.344 21.2187C283.38 35.369 276.906 52.9716 276.906 73.9687C276.906 95.6963 283.38 113.532 296.344 127.5C309.307 141.468 327.109 148.438 349.75 148.438C367.095 148.438 381.331 144.077 392.469 135.312C403.606 126.548 410.542 115.584 413.281 102.438L376.594 102.438C372.212 113.94 363.163 119.687 349.469 119.687C339.061 119.688 330.838 116.617 324.812 110.5C318.787 104.383 315.055 95.7627 313.594 84.625L415.469 84.625C415.469 58.8807 409.457 38.337 397.406 23C385.356 7.6629 368.28-1.01725e-05 346.188 0ZM485.313 0C468.515 2.31391e-06 454.775 3.83144 444.094 11.5C433.413 19.1685 428.094 30.3308 428.094 44.9375C428.094 52.2408 429.384 58.4839 432.031 63.6875C434.679 68.8912 438.674 72.9874 443.969 76C449.264 79.0126 454.318 81.2918 459.156 82.8437C463.995 84.3957 470.269 85.9143 477.938 87.375C479.398 87.7402 481.976 88.236 485.719 88.875C489.462 89.514 492.136 90.0099 493.688 90.375C495.239 90.7402 497.453 91.3009 500.375 92.0312C503.296 92.7616 505.344 93.4884 506.531 94.2188C507.718 94.9491 509.104 95.907 510.656 97.0937C512.208 98.2806 513.299 99.6018 513.938 101.062C514.577 102.523 514.906 104.174 514.906 106C514.906 110.93 512.661 114.86 508.188 117.781C503.714 120.703 497.372 122.156 489.156 122.156C471.08 122.156 460.842 114.395 458.469 98.875L423.969 98.875C425.064 114.212 431.274 126.301 442.594 135.156C453.914 144.012 469.603 148.437 489.688 148.438C507.398 148.438 521.699 144.375 532.563 136.25C543.426 128.125 548.844 117.126 548.844 103.25C548.844 96.8596 547.819 91.2447 545.719 86.4062C543.619 81.5678 541.143 77.7363 538.313 74.9062C535.483 72.0761 531.618 69.5323 526.688 67.25C521.758 64.9677 517.4 63.3167 513.656 62.3125C509.913 61.3083 505.124 60.1531 499.281 58.875C497.273 58.5098 494.531 58.0141 491.063 57.375C487.593 56.736 484.852 56.1752 482.844 55.7187C480.835 55.2623 478.489 54.7328 475.75 54.0937C473.011 53.4547 470.898 52.8266 469.437 52.1875C467.977 51.5485 466.458 50.723 464.906 49.7187C463.354 48.7145 462.264 47.5257 461.625 46.1562C460.986 44.7869 460.656 43.2683 460.656 41.625C460.656 36.6952 462.803 32.8637 467.094 30.125C471.385 27.3863 477.264 26.0313 484.75 26.0312C501.365 26.0312 510.414 32.8687 511.875 46.5625L545.562 46.5625C544.102 32.1384 538.222 20.7763 527.906 12.4687C517.59 4.16113 503.388-2.54313e-05 485.313 0ZM643.625 0C626.462 3.23947e-05 612.657 7.13342 602.25 21.375L601.438 21.375L601.438 3.84375L565.562 3.84375L565.562 190.344L602.812 190.344L602.812 128.437L603.344 128.437C612.108 141.766 625.616 148.437 643.875 148.438C662.133 148.438 676.862 141.732 688 128.312C699.138 114.892 704.687 96.8592 704.688 74.2187C704.688 52.1261 699.138 34.2251 688 20.5312C676.862 6.83743 662.066-2.03451e-05 643.625 0ZM943.781 0C925.705-1.38835e-05 911.833 7.66294 902.156 23L901.344 23L901.344 3.84375L864.906 3.84375L864.906 144.312L902.156 144.312L902.156 64.6563C902.156 55.1619 904.864 47.369 910.25 41.3438C915.636 35.3185 922.409 32.3125 930.625 32.3125C938.294 32.3125 944.303 34.6903 948.594 39.4375C952.884 44.1846 955 50.394 955 58.0625L955 144.312L992.25 144.312L992.25 52.5937C992.25 37.0741 987.79 24.4245 978.844 14.6563C969.897 4.88801 958.205-1.78019e-05 943.781 0ZM782.188 0.28125C762.834 0.281282 748.069 4.64221 737.844 13.4063C727.619 22.1703 722.204 33.2338 721.656 46.5625L754.812 46.5625C755.908 33.4165 764.926 26.8437 781.906 26.8437C789.575 26.8437 795.421 28.3624 799.438 31.375C803.454 34.3877 805.469 38.4189 805.469 43.5312C805.469 48.461 803.091 51.8954 798.344 53.8125C793.596 55.7296 784.646 57.6117 771.5 59.4375C753.607 61.9937 739.734 66.5857 729.875 73.25C720.015 79.9144 715.094 90.3834 715.094 104.625C715.094 118.319 719.585 128.92 728.531 136.406C737.478 143.892 749.335 147.625 764.125 147.625C775.263 147.625 783.917 145.974 790.125 142.688C796.333 139.401 801.452 134.744 805.469 128.719L806.031 128.719L805.969 144.312L841.344 144.312L841.344 123.5L841.344 52.0312C841.344 17.5228 821.626 0.28127 782.188 0.28125ZM140.25 3.84375L178.031 103.781C185.152 122.953 188.718 135.667 188.719 141.875C188.719 154.656 181.751 161.031 167.875 161.031L154.75 161.031L154.75 190.344L176.656 190.344C190.533 190.344 200.903 187.304 207.75 181.188C214.597 175.071 220.741 163.974 226.219 147.906L275.25 3.84375L237.719 3.84375L218 67.0937C215.079 75.6752 212.369 85.9133 209.812 97.7812L209.25 97.7812L200.219 67.0937L179.406 3.84375L140.25 3.84375ZM69.8438 28.75C78.2426 28.75 85.1785 31.5249 90.6562 37.0937C96.1338 42.6626 99.1709 49.9284 99.7187 58.875L37.25 58.875C40.9017 38.7908 51.7681 28.75 69.8438 28.75ZM346.719 28.75C355.118 28.75 362.054 31.5249 367.531 37.0937C373.009 42.6626 376.046 49.9284 376.594 58.875L314.156 58.875C317.808 38.7908 328.643 28.75 346.719 28.75ZM634.563 30.125C645.518 30.125 653.674 34.1538 658.969 42.1875C664.264 50.2212 666.906 61.2535 666.906 75.3125C666.906 88.4586 664.1 98.7953 658.531 106.281C652.962 113.767 645.432 117.5 635.938 117.5C624.982 117.5 616.593 113.702 610.75 106.125C604.907 98.5477 602 88.276 602 75.3125C602 61.8012 604.643 50.9013 609.938 42.5938C615.232 34.2862 623.425 30.125 634.563 30.125ZM806.312 73.6562L806.312 94.7812C806.312 102.085 803.34 108.361 797.406 113.656C791.472 118.951 783.381 121.625 773.156 121.625C758.549 121.625 751.25 115.649 751.25 103.781C751.25 97.5734 753.43 92.9814 757.812 89.9687C762.194 86.9561 769.692 84.2486 780.281 81.875C793.61 78.7711 802.296 76.0298 806.312 73.6562ZM406.063 217.406L406.063 258.281L408.844 258.281L408.844 217.406L406.063 217.406ZM492.594 217.406L492.594 234.094L492.469 234.094C490.449 230.092 487.118 228.094 482.469 228.094C478.924 228.094 475.988 229.499 473.625 232.281C471.262 235.063 470.063 238.83 470.063 243.594C470.062 248.129 471.177 251.842 473.406 254.719C475.636 257.596 478.682 259.031 482.531 259.031C486.914 259.031 490.22 257.148 492.469 253.375L492.594 253.375L492.594 258.281L495.406 258.281L495.406 217.406L492.594 217.406ZM573.25 217.406L573.25 234.094L573.125 234.094C571.105 230.092 567.774 228.094 563.125 228.094C559.581 228.094 556.644 229.499 554.281 232.281C551.918 235.063 550.719 238.83 550.719 243.594C550.719 248.129 551.833 251.842 554.063 254.719C556.292 257.596 559.339 259.031 563.188 259.031C567.57 259.031 570.877 257.148 573.125 253.375L573.25 253.375L573.25 258.281L576.063 258.281L576.063 217.406L573.25 217.406ZM863.188 217.406L863.188 258.281L865.969 258.281L865.969 217.406L863.188 217.406ZM522.781 217.969C520.38 217.969 518.382 218.75 516.781 220.312C515.181 221.875 514.375 223.783 514.375 226.031C514.375 227.517 514.642 228.886 515.156 230.125C515.671 231.363 516.555 232.799 517.812 234.437L518.719 235.656C515.556 237.371 513.17 239.14 511.531 240.969C509.892 242.798 509.063 245.184 509.063 248.156C509.063 251.51 510.231 254.15 512.594 256.094C514.957 258.037 517.949 259.031 521.531 259.031C526.219 259.031 529.913 257.263 532.656 253.719L536.219 258.281L539.688 258.281L534.281 251.25C536.034 247.935 536.906 244.168 536.906 239.938L534.094 239.938C533.979 243.329 533.404 246.266 532.375 248.781L522.656 236.219C525.324 234.771 527.371 233.323 528.781 231.875C530.191 230.427 530.906 228.543 530.906 226.219C530.906 223.666 530.137 221.655 528.594 220.187C527.05 218.72 525.106 217.969 522.781 217.969ZM874.375 219.812L874.375 228.719L869.812 228.719L869.812 231.062L874.375 231.062L874.375 253.469C874.375 256.822 876.053 258.5 879.406 258.5C880.473 258.5 881.461 258.343 882.375 258L882.375 255.594L882.219 255.594C881.609 255.937 880.877 256.094 880 256.094C879.009 256.094 878.282 255.888 877.844 255.469C877.405 255.05 877.188 254.317 877.188 253.25L877.188 231.062L882.563 231.062L882.563 228.719L877.188 228.719L877.188 219.812L874.375 219.812ZM522.781 220.5C524.306 220.5 525.559 220.99 526.531 222C527.503 223.01 527.969 224.379 527.969 226.094C527.969 227.809 527.442 229.268 526.375 230.469C525.308 231.669 523.588 232.947 521.188 234.281L519.812 232.438C518.174 230.303 517.344 228.19 517.344 226.094C517.343 224.417 517.858 223.06 518.906 222.031C519.954 221.002 521.257 220.5 522.781 220.5ZM390.375 228.094C386.259 228.094 383.092 229.505 380.844 232.344C378.595 235.183 377.469 238.92 377.469 243.531C377.469 248.142 378.583 251.892 380.813 254.75C383.042 257.608 386.228 259.031 390.344 259.031C393.697 259.031 396.38 258.037 398.438 256.094C400.495 254.15 401.713 251.559 402.094 248.281L399.469 248.281C399.164 250.758 398.201 252.757 396.563 254.281C394.924 255.806 392.859 256.562 390.344 256.562C387.028 256.563 384.52 255.345 382.844 252.906C381.167 250.467 380.344 247.342 380.344 243.531C380.344 239.72 381.155 236.595 382.813 234.156C384.47 231.717 386.983 230.5 390.375 230.5C395.215 230.5 398.117 232.753 399.031 237.25L401.75 237.25C401.293 234.316 400.063 232.05 398.063 230.469C396.062 228.887 393.5 228.094 390.375 228.094ZM426.563 228.094C422.485 228.094 419.257 229.529 416.875 232.406C414.493 235.283 413.313 238.996 413.313 243.531C413.313 248.066 414.493 251.791 416.875 254.688C419.257 257.584 422.485 259.031 426.563 259.031C430.64 259.031 433.856 257.608 436.219 254.75C438.62 251.854 439.844 248.104 439.844 243.531C439.844 238.958 438.632 235.233 436.25 232.375C433.868 229.517 430.64 228.094 426.563 228.094ZM593.5 228.094C589.498 228.094 586.288 229.517 583.906 232.375C581.524 235.233 580.344 238.958 580.344 243.531C580.344 248.181 581.5 251.911 583.844 254.75C586.187 257.589 589.489 259.031 593.719 259.031C596.882 259.031 599.456 258.171 601.438 256.437C603.419 254.704 604.727 252.365 605.375 249.469L602.688 249.469C601.277 254.194 598.292 256.562 593.719 256.562C590.251 256.563 587.628 255.394 585.875 253.031C584.122 250.668 583.226 247.585 583.188 243.812L605.562 243.812C605.638 237.944 604.184 233.674 601.25 230.969C599.23 229.063 596.663 228.094 593.5 228.094ZM645.781 228.094C641.704 228.094 638.476 229.529 636.094 232.406C633.712 235.283 632.531 238.996 632.531 243.531C632.531 248.066 633.712 251.791 636.094 254.688C638.476 257.584 641.704 259.031 645.781 259.031C649.859 259.031 653.075 257.608 655.438 254.75C657.839 251.854 659.063 248.104 659.063 243.531C659.062 238.958 657.851 235.233 655.469 232.375C653.087 229.517 649.859 228.094 645.781 228.094ZM676.594 228.094C671.906 228.094 668.46 230.183 666.25 234.375L666.156 234.375L666.156 228.719L663.344 228.719L663.344 267.781L666.156 267.781L666.156 253.406L666.25 253.406C668.536 257.065 671.916 258.906 676.375 258.906C680.11 258.906 683.059 257.459 685.25 254.562C687.441 251.666 688.563 247.966 688.563 243.469C688.562 238.667 687.429 234.912 685.219 232.188C683.009 229.463 680.138 228.094 676.594 228.094ZM701.969 228.094C699.072 228.094 696.687 228.821 694.781 230.25C692.876 231.679 691.906 233.599 691.906 236C691.906 238.401 692.797 240.169 694.531 241.312C696.265 242.456 698.918 243.443 702.5 244.281C705.739 245.043 707.902 245.837 708.969 246.656C710.036 247.476 710.563 248.681 710.562 250.281C710.562 252.225 709.847 253.763 708.438 254.906C707.028 256.049 705.102 256.625 702.625 256.625C700.11 256.625 698.05 255.989 696.469 254.75C694.887 253.511 694.003 251.738 693.813 249.375L690.938 249.375C691.09 252.119 692.174 254.402 694.156 256.25C696.138 258.098 698.967 259.031 702.625 259.031C705.978 259.031 708.594 258.201 710.5 256.562C712.405 254.924 713.344 252.859 713.344 250.344C713.343 247.752 712.582 245.881 711 244.719C709.419 243.556 706.923 242.55 703.531 241.75C700.216 240.95 697.902 240.181 696.625 239.437C695.348 238.694 694.719 237.538 694.719 235.938C694.719 234.337 695.336 233.022 696.594 232.031C697.852 231.04 699.644 230.562 701.969 230.562C704.217 230.563 706.034 231.077 707.406 232.125C708.778 233.173 709.56 234.633 709.75 236.5L712.5 236.5C711.7 230.898 708.181 228.094 701.969 228.094ZM738.281 228.094C734.165 228.094 730.998 229.505 728.75 232.344C726.502 235.183 725.375 238.92 725.375 243.531C725.375 248.142 726.49 251.892 728.719 254.75C730.948 257.608 734.103 259.031 738.219 259.031C741.572 259.031 744.286 258.037 746.344 256.094C748.401 254.15 749.619 251.559 750 248.281L747.375 248.281C747.07 250.758 746.107 252.757 744.469 254.281C742.83 255.806 740.734 256.562 738.219 256.562C734.903 256.563 732.427 255.345 730.75 252.906C729.073 250.467 728.219 247.342 728.219 243.531C728.219 239.72 729.061 236.595 730.719 234.156C732.376 231.717 734.89 230.5 738.281 230.5C743.121 230.5 745.992 232.753 746.906 237.25L749.656 237.25C749.199 234.316 747.969 232.05 745.969 230.469C743.968 228.887 741.406 228.094 738.281 228.094ZM765.594 228.094C761.516 228.094 758.288 229.529 755.906 232.406C753.524 235.283 752.344 238.996 752.344 243.531C752.344 248.066 753.524 251.791 755.906 254.688C758.288 257.584 761.516 259.031 765.594 259.031C769.672 259.031 772.887 257.608 775.25 254.75C777.651 251.854 778.875 248.104 778.875 243.531C778.875 238.958 777.663 235.233 775.281 232.375C772.9 229.517 769.671 228.094 765.594 228.094ZM820.031 228.094C817.135 228.094 814.718 228.821 812.812 230.25C810.907 231.679 809.969 233.599 809.969 236C809.969 238.401 810.829 240.169 812.563 241.312C814.296 242.456 816.949 243.443 820.531 244.281C823.77 245.043 825.933 245.837 827 246.656C828.067 247.476 828.594 248.681 828.594 250.281C828.594 252.225 827.879 253.763 826.469 254.906C825.059 256.049 823.133 256.625 820.656 256.625C818.141 256.625 816.082 255.989 814.5 254.75C812.918 253.511 812.034 251.738 811.844 249.375L809 249.375C809.153 252.119 810.206 254.402 812.188 256.25C814.169 258.098 816.998 259.031 820.656 259.031C824.01 259.031 826.626 258.201 828.531 256.562C830.437 254.924 831.406 252.859 831.406 250.344C831.406 247.752 830.613 245.881 829.031 244.719C827.45 243.556 824.954 242.55 821.563 241.75C818.247 240.95 815.964 240.181 814.688 239.437C813.411 238.694 812.75 237.538 812.75 235.938C812.75 234.337 813.398 233.022 814.656 232.031C815.914 231.04 817.707 230.562 820.031 230.562C822.279 230.563 824.097 231.077 825.469 232.125C826.841 233.173 827.622 234.633 827.812 236.5L830.531 236.5C829.731 230.898 826.243 228.094 820.031 228.094ZM898.063 228.094C890.822 228.094 886.891 231.104 886.281 237.125L889.125 237.125C889.544 232.704 892.537 230.5 898.063 230.5C903.017 230.5 905.469 232.638 905.469 236.906L905.469 237.938C905.469 239.271 904.966 240.143 903.938 240.562C902.909 240.982 900.565 241.345 896.906 241.688C895.154 241.878 893.657 242.12 892.438 242.406C891.218 242.692 890.013 243.165 888.813 243.812C887.612 244.46 886.716 245.369 886.125 246.531C885.534 247.694 885.25 249.104 885.25 250.781C885.25 253.411 886.11 255.446 887.844 256.875C889.578 258.304 891.868 259.031 894.688 259.031C899.299 259.031 902.86 257.263 905.375 253.719L905.531 253.719L905.531 254.75C905.531 256.084 905.889 257.083 906.594 257.75C907.299 258.417 908.256 258.75 909.438 258.75C910.352 258.75 911.109 258.586 911.719 258.281L911.719 256.219L911.531 256.219C910.959 256.409 910.499 256.5 910.156 256.5C908.898 256.5 908.281 255.809 908.281 254.437L908.281 237.062C908.281 231.079 904.884 228.094 898.063 228.094ZM954.125 228.094C950.009 228.094 946.842 229.505 944.594 232.344C942.345 235.183 941.219 238.92 941.219 243.531C941.219 248.142 942.333 251.892 944.563 254.75C946.792 257.608 949.947 259.031 954.063 259.031C957.416 259.031 960.13 258.037 962.188 256.094C964.245 254.15 965.463 251.559 965.844 248.281L963.219 248.281C962.914 250.758 961.951 252.757 960.313 254.281C958.674 255.806 956.578 256.562 954.063 256.562C950.747 256.563 948.27 255.345 946.594 252.906C944.917 250.467 944.063 247.342 944.063 243.531C944.063 239.72 944.905 236.595 946.563 234.156C948.22 231.717 950.733 230.5 954.125 230.5C958.965 230.5 961.836 232.753 962.75 237.25L965.5 237.25C965.043 234.316 963.813 232.05 961.813 230.469C959.812 228.887 957.25 228.094 954.125 228.094ZM796.344 228.156C791.771 228.156 788.349 229.991 786.063 233.688L785.969 233.688L785.969 228.719L783.156 228.719L783.156 258.281L785.969 258.281L785.969 239.188C785.969 236.749 786.944 234.689 788.906 233.031C790.869 231.374 793.176 230.562 795.844 230.562C800.34 230.562 802.594 232.858 802.594 237.469L802.594 258.281L805.375 258.281L805.375 237.188C805.375 234.329 804.54 232.113 802.844 230.531C801.148 228.95 798.973 228.156 796.344 228.156ZM928.125 228.156C923.552 228.156 920.13 229.991 917.844 233.688L917.719 233.688L917.719 228.719L914.906 228.719L914.906 258.281L917.719 258.281L917.719 239.188C917.719 236.749 918.694 234.689 920.656 233.031C922.619 231.374 924.926 230.562 927.594 230.562C932.09 230.562 934.344 232.858 934.344 237.469L934.344 258.281L937.156 258.281L937.156 237.188C937.156 234.329 936.29 232.113 934.594 230.531C932.898 228.95 930.755 228.156 928.125 228.156ZM443.906 228.719L443.906 249.812C443.906 252.671 444.79 254.912 446.563 256.531C448.334 258.151 450.593 258.969 453.375 258.969C455.661 258.969 457.533 258.508 459 257.594C460.467 256.679 461.77 255.389 462.875 253.75L463 253.75L463 258.281L465.781 258.281L465.781 228.719L463 228.719L463 247.406C463 249.998 462.109 252.184 460.375 253.937C458.641 255.691 456.498 256.562 453.906 256.562C451.62 256.563 449.852 255.975 448.594 254.812C447.336 253.65 446.688 251.894 446.688 249.531L446.688 228.719L443.906 228.719ZM606.625 228.719L617.156 258.281L620.625 258.281L631.438 228.719L628.594 228.719L621.719 247.469C620.995 249.489 620.081 252.244 618.938 255.75L618.813 255.75L616.125 247.469L609.594 228.719L606.625 228.719ZM835.406 228.719L835.406 249.812C835.406 252.671 836.29 254.912 838.063 256.531C839.835 258.151 842.093 258.969 844.875 258.969C847.161 258.969 849.064 258.508 850.531 257.594C851.998 256.679 853.27 255.389 854.375 253.75L854.5 253.75L854.5 258.281L857.281 258.281L857.281 228.719L854.5 228.719L854.5 247.406C854.5 249.998 853.64 252.184 851.906 253.937C850.173 255.691 847.998 256.562 845.406 256.562C843.12 256.563 841.352 255.975 840.094 254.812C838.836 253.65 838.188 251.894 838.188 249.531L838.188 228.719L835.406 228.719ZM967.344 228.719L978.656 258.75L977.781 261.188C976.791 264.046 975.022 265.469 972.469 265.469C971.668 265.469 970.887 265.378 970.125 265.187L970.031 265.187L970.031 267.719C970.87 267.947 971.602 268.062 972.25 268.062C974.308 268.062 975.961 267.602 977.219 266.688C978.477 265.773 979.537 264.137 980.375 261.812L992.25 228.719L989.406 228.719L982.531 248.281C981.845 250.263 981.039 252.722 980.125 255.656L980.031 255.656L977.438 248.281L970.25 228.719L967.344 228.719ZM426.563 230.438C429.84 230.438 432.389 231.679 434.219 234.156C436.048 236.633 436.969 239.759 436.969 243.531C436.969 247.304 436.048 250.429 434.219 252.906C432.39 255.383 429.84 256.625 426.563 256.625C423.285 256.625 420.736 255.383 418.906 252.906C417.077 250.429 416.156 247.304 416.156 243.531C416.156 239.759 417.077 236.633 418.906 234.156C420.736 231.679 423.285 230.438 426.563 230.438ZM645.781 230.438C649.059 230.438 651.608 231.679 653.438 234.156C655.267 236.633 656.188 239.759 656.188 243.531C656.188 247.304 655.267 250.429 653.438 252.906C651.608 255.383 649.059 256.625 645.781 256.625C642.504 256.625 639.954 255.383 638.125 252.906C636.296 250.429 635.375 247.304 635.375 243.531C635.375 239.759 636.296 236.633 638.125 234.156C639.954 231.679 642.504 230.438 645.781 230.438ZM765.594 230.438C768.871 230.438 771.421 231.679 773.25 234.156C775.079 236.633 776 239.759 776 243.531C776 247.304 775.079 250.429 773.25 252.906C771.421 255.383 768.871 256.625 765.594 256.625C762.316 256.625 759.767 255.383 757.938 252.906C756.108 250.429 755.188 247.304 755.188 243.531C755.188 239.759 756.108 236.633 757.938 234.156C759.767 231.679 762.316 230.438 765.594 230.438ZM482.719 230.5C485.92 230.5 488.396 231.73 490.188 234.188C491.979 236.645 492.875 239.807 492.875 243.656C492.875 247.619 491.954 250.762 490.125 253.125C488.296 255.488 485.819 256.688 482.656 256.688C479.493 256.688 477.052 255.47 475.375 253.031C473.736 250.554 472.938 247.429 472.938 243.656C472.937 239.693 473.81 236.495 475.562 234.094C477.315 231.693 479.708 230.5 482.719 230.5ZM563.375 230.5C566.576 230.5 569.053 231.73 570.844 234.188C572.635 236.645 573.531 239.807 573.531 243.656C573.531 247.619 572.611 250.762 570.781 253.125C568.952 255.488 566.475 256.688 563.313 256.688C560.15 256.688 557.708 255.47 556.031 253.031C554.392 250.554 553.594 247.429 553.594 243.656C553.593 239.693 554.466 236.495 556.219 234.094C557.971 231.693 560.364 230.5 563.375 230.5ZM593.5 230.5C596.548 230.5 598.807 231.548 600.313 233.625C601.817 235.702 602.611 238.33 602.688 241.531L583.25 241.531C583.555 238.216 584.579 235.551 586.312 233.531C588.046 231.511 590.451 230.5 593.5 230.5ZM676.188 230.5C679.198 230.5 681.561 231.656 683.219 234C684.876 236.344 685.688 239.53 685.688 243.531C685.688 247.266 684.857 250.367 683.219 252.844C681.58 255.321 679.261 256.563 676.25 256.562C672.935 256.562 670.373 255.418 668.563 253.094C666.752 250.769 665.844 247.62 665.844 243.656C665.844 239.807 666.777 236.645 668.625 234.188C670.473 231.729 672.986 230.5 676.188 230.5ZM520.219 237.594L530.938 251.469C528.727 254.784 525.626 256.437 521.625 256.437C518.729 256.437 516.434 255.693 514.719 254.188C513.004 252.682 512.156 250.671 512.156 248.156C512.156 245.679 512.84 243.644 514.25 242.062C515.66 240.481 517.666 239.004 520.219 237.594ZM905.469 242.281L905.469 247.75C905.469 250.113 904.531 252.209 902.625 254C900.719 255.791 898.17 256.688 894.969 256.688C892.911 256.688 891.258 256.215 890 255.281C888.742 254.348 888.094 252.888 888.094 250.906C888.094 249.572 888.299 248.47 888.719 247.594C889.138 246.717 889.829 246.051 890.781 245.594C891.734 245.137 892.667 244.816 893.563 244.625C894.458 244.434 895.687 244.222 897.25 244.031C901.289 243.574 904.021 243.005 905.469 242.281Z" fill="url(#LinearGradient)" fill-rule="nonzero" opacity="1" stroke="none"/>
</g>
</svg>
